<?xml version="1.0" encoding="utf-8"?>
<!-- Generator: Adobe Illustrator 24.3.0, SVG Export Plug-In . SVG Version: 6.00 Build 0)  -->
<svg version="1.1" id="Layer_1" xmlns:v="https://vecta.io/nano"
	 xmlns="http://www.w3.org/2000/svg" xmlns:xlink="http://www.w3.org/1999/xlink" x="0px" y="0px" viewBox="0 0 60 60"
	 style="enable-background:new 0 0 60 60;" xml:space="preserve">
<style type="text/css">
	.st0{fill:none;}
	.st1{fill:#F42F25;}
</style>
<rect class="st0" width="60" height="60"/>
<g>
	<path class="st1" d="M57.5,40.5h-9.2l1.7-0.6c3.5-1.4,5.3-3.1,5.3-4.9c0-2.9-2.3-3.8-4.4-4.7c-0.9-0.4-1.8-0.7-2.5-1.3
		c-0.4-0.3-0.9-0.2-1.2,0.2c-0.3,0.4-0.2,0.9,0.2,1.2c0.9,0.6,1.9,1,2.9,1.4c2.1,0.9,3.3,1.4,3.3,3.1c0,1-1.5,2.2-4.2,3.3
		c-3.2,1.3-7,2-8.5,2.2h-2.9c2-1.5,3.4-3.6,4.3-6.4c1.1-3.4,2.6-5.9,5-8.1c0.7-0.6,1-1.5,0.9-2.3l5-3.7c0.1-0.1,0.3-0.1,0.5,0
		c1.1,0.7,2.2,0.9,3.2,0.6c0.8-0.3,1.4-0.9,1.8-1.6c0.4-0.8,0.4-1.7,0-2.6c-0.5-1.1-1.5-1.8-2.6-2c0.2-1.1-0.2-2.3-1.1-3.1
		c-0.7-0.6-1.6-0.9-2.5-0.8c-0.8,0.1-1.6,0.5-2.1,1.2c-0.6,0.9-0.8,2-0.4,3.3c0,0.2,0,0.3-0.1,0.4L44.6,19c-0.7-0.3-1.7-0.3-2.4,0.1
		c-2.8,1.6-5.7,2.4-9.2,2.4c-3.1,0-5.6,0.8-7.7,2.3c-2.4,1.7-3.9,4.2-4.5,7c-0.5,2.8,0.1,5.6,1.8,7.9c0.5,0.6,1,1.2,1.6,1.7H13
		C6.3,39.1,3,35.8,3,30.2c0-4.2,1.9-8.6,5.2-12c3.6-3.7,8.3-5.7,13.4-5.7c5.8,0,11.9,2.1,16.6,5.8c0.4,0.3,0.9,0.2,1.2-0.2
		c0.3-0.4,0.2-0.9-0.2-1.2c-5-3.9-11.5-6.2-17.7-6.2C16,10.8,10.8,13,6.9,17c-3.6,3.7-5.7,8.5-5.7,13.2c0,4.8,2.1,8.2,6.3,10.3h-5
		C1.1,40.5,0,41.6,0,43c0,1.4,1.1,2.5,2.5,2.5h3.2c0,0,0.1,0,0.1,0.1L6.4,47c0.7,1.6,2.2,2.7,4,2.7h39.4c1.7,0,3.3-1,4-2.7l0.6-1.4
		c0,0,0.1-0.1,0.1-0.1h3.2c1.4,0,2.5-1.1,2.5-2.5C60,41.6,58.9,40.5,57.5,40.5L57.5,40.5L57.5,40.5z M50.7,16.8
		c0.7-0.5,1.1-1.5,0.8-2.4c-0.1-0.5-0.2-1.2,0.1-1.7c0.2-0.3,0.5-0.5,0.9-0.5c0.4,0,0.8,0.1,1.1,0.4c0.5,0.4,0.7,1,0.5,1.6
		c-0.1,0.4-0.1,0.9,0.2,1.3s0.7,0.6,1.2,0.6l0,0c0.6,0,1.2,0.4,1.4,0.9c0.2,0.4,0.2,0.8,0,1.2c-0.1,0.2-0.3,0.5-0.7,0.7
		c-0.6,0.2-1.3-0.1-1.7-0.4C53.7,18,52.7,18,52,18.6l-4.8,3.5l-1.3-1.8L50.7,16.8L50.7,16.8z M24,37.8c-1.4-1.9-1.9-4.2-1.5-6.5
		c0.4-2.4,1.8-4.5,3.8-5.9c1.8-1.3,4-2,6.7-2c3.9,0,7-0.8,10.1-2.6c0.3-0.2,0.7-0.2,1,0.1c0,0,0.1,0.1,0.1,0.1l2,2.7
		c0,0,0.1,0.1,0.1,0.1c0.1,0.3,0,0.7-0.2,1c-2.6,2.4-4.3,5.1-5.5,8.8c-0.8,2.5-2.1,4.4-3.9,5.8c-0.7,0.5-1.4,0.9-2.2,1.2h-6.9
		C26.1,39.9,24.9,39,24,37.8L24,37.8L24,37.8z M57.5,43.8H18.7c-0.5,0-0.9,0.4-0.9,0.9c0,0.5,0.4,0.9,0.9,0.9h33.6L52,46.3
		c-0.4,0.9-1.3,1.6-2.3,1.6H10.3c-1,0-1.9-0.6-2.3-1.6l-0.3-0.8h7c0.5,0,0.9-0.4,0.9-0.9c0-0.5-0.4-0.9-0.9-0.9H2.5
		c-0.4,0-0.8-0.3-0.8-0.8s0.3-0.8,0.8-0.8h55c0.4,0,0.8,0.3,0.8,0.8S57.9,43.8,57.5,43.8C57.5,43.8,57.5,43.8,57.5,43.8z"/>
</g>
</svg>
